<?xml version="1.0" encoding="iso-8859-1"?>
<!-- Uploaded to: SVG Repo, www.svgrepo.com, Generator: SVG Repo Mixer Tools -->
<svg xmlns="http://www.w3.org/2000/svg" xmlns:xlink="http://www.w3.org/1999/xlink" version="1.1" id="Layer_1"  viewBox="0 0 311.224 311.224" xml:space="preserve" width="512" height="512">
<g>
	<path style="fill:#DCDBCD;" d="M261.734,311.224H49.49c-8.284,0-15-6.716-15-15V76.983c0-3.979,1.581-7.793,4.394-10.606   l61.984-61.983C103.68,1.58,107.496,0,111.474,0h150.26c8.284,0,15,6.716,15,15v281.224   C276.734,304.508,270.018,311.224,261.734,311.224z"/>
	<path style="fill:#B7B7AC;" d="M159.865,311.224H49.49c-8.284,0-15-6.716-15-15V76.983c0-3.979,1.581-7.793,4.394-10.606   l61.984-61.983C103.68,1.58,107.496,0,111.474,0h48.391L159.865,311.224z"/>
	<path style="fill:#A99B96;" d="M202.612,154.789h-85.493c-8.284,0-15-6.716-15-15s6.716-15,15-15h85.493c8.284,0,15,6.716,15,15   S210.896,154.789,202.612,154.789z"/>
	<path style="fill:#938783;" d="M159.865,154.789h-42.747c-8.284,0-15-6.716-15-15s6.716-15,15-15h42.747V154.789z"/>
	<path style="fill:#A99B96;" d="M202.612,210.629h-85.493c-8.284,0-15-6.716-15-15s6.716-15,15-15h85.493c8.284,0,15,6.716,15,15   S210.896,210.629,202.612,210.629z"/>
	<path style="fill:#938783;" d="M159.865,210.629h-42.747c-8.284,0-15-6.716-15-15s6.716-15,15-15h42.747V210.629z"/>
	<path style="fill:#A99B96;" d="M202.612,266.47h-85.493c-8.284,0-15-6.716-15-15c0-8.284,6.716-15,15-15h85.493   c8.284,0,15,6.716,15,15C217.612,259.754,210.896,266.47,202.612,266.47z"/>
	<path style="fill:#938783;" d="M159.865,266.47h-42.747c-8.284,0-15-6.716-15-15c0-8.284,6.716-15,15-15h42.747V266.47z"/>
	<g>
		<g>
			<g>
				<path style="fill:#938783;" d="M107.102,0.652c-2.333,0.711-4.479,1.986-6.234,3.742L38.883,66.377      c-1.756,1.756-3.031,3.902-3.742,6.235h48.715c12.838,0,23.245-10.407,23.245-23.245V0.652z"/>
			</g>
		</g>
	</g>
</g>















</svg>